<?xml version="1.0" standalone="no"?>
<!DOCTYPE svg PUBLIC "-//W3C//DTD SVG 20010904//EN"
 "http://www.w3.org/TR/2001/REC-SVG-20010904/DTD/svg10.dtd">
<svg version="1.0" xmlns="http://www.w3.org/2000/svg"
 width="200.000000pt" height="200.000000pt" viewBox="0 0 200.000000 200.000000"
 preserveAspectRatio="xMidYMid meet">

<g transform="translate(0.000000,200.000000) scale(0.100000,-0.100000)"
fill="#000000" stroke="none">
<path d="M899 1990 c-341 -32 -641 -242 -794 -555 -77 -158 -99 -255 -99 -435
0 -161 18 -261 73 -391 75 -179 237 -367 399 -463 282 -168 622 -192 925 -66
222 92 419 290 517 519 65 150 75 204 75 401 0 198 -13 265 -84 416 -108 229
-295 408 -524 500 -44 18 -86 30 -93 27 -8 -3 -14 0 -14 7 0 7 -8 10 -20 7
-11 -3 -20 -1 -20 5 0 5 -9 6 -20 3 -11 -3 -20 -2 -20 3 0 5 -13 8 -30 7 -16
-1 -30 0 -30 4 0 3 -12 6 -27 7 -16 0 -50 3 -78 6 -27 3 -89 2 -136 -2z m599
-940 l-3 -415 -32 -66 c-39 -79 -102 -140 -181 -177 -49 -23 -70 -27 -147 -27
-82 0 -97 3 -157 33 -91 45 -157 122 -192 225 -4 14 -29 -9 -117 -105 -61 -68
-125 -136 -141 -153 l-29 -30 3 515 3 515 29 59 c109 223 392 280 571 115 49
-45 105 -131 105 -161 0 -10 4 -18 8 -18 5 0 69 67 143 149 l134 148 3 -96 c2
-53 2 -283 0 -511z"/>
<path d="M808 1470 c-47 -14 -88 -44 -116 -84 l-27 -39 -3 -216 c-2 -119 -2
-254 0 -300 l3 -84 180 198 c99 108 188 210 198 225 10 15 20 51 24 79 17 143
-122 262 -259 221z"/>
<path d="M1150 1045 c-102 -112 -193 -221 -202 -242 -24 -53 -22 -109 6 -170
70 -150 290 -152 367 -2 18 36 19 57 17 328 l-3 289 -185 -203z"/>
</g>
</svg>
