<?xml version="1.0" standalone="no"?>
<!DOCTYPE svg PUBLIC "-//W3C//DTD SVG 20010904//EN"
 "http://www.w3.org/TR/2001/REC-SVG-20010904/DTD/svg10.dtd">
<svg version="1.0" xmlns="http://www.w3.org/2000/svg"
 width="400.000000pt" height="400.000000pt" viewBox="0 0 400.000000 400.000000"
 preserveAspectRatio="xMidYMid meet">

<g transform="translate(0.000000,400.000000) scale(0.100000,-0.100000)"
fill="#000000" stroke="none">
<path d="M0 2000 l0 -2000 2000 0 2000 0 0 2000 0 2000 -2000 0 -2000 0 0
-2000z m1000 1346 c0 -2 -8 -10 -17 -17 -16 -13 -17 -12 -4 4 13 16 21 21 21
13z m230 -46 c47 -18 108 -41 136 -52 29 -11 58 -21 65 -22 8 -2 32 -11 54
-21 22 -9 50 -17 62 -17 13 0 20 -5 17 -10 -3 -5 0 -8 7 -7 8 1 32 -6 53 -15
22 -10 47 -19 55 -21 9 -2 33 -10 54 -19 20 -9 53 -23 72 -31 20 -8 42 -15 49
-15 7 0 34 -11 60 -25 26 -14 44 -19 40 -13 -4 8 -3 10 2 5 5 -5 8 -63 6 -130
l-3 -122 -109 -107 c-77 -76 -116 -108 -133 -108 -13 0 -52 11 -86 25 -35 13
-68 22 -72 19 -5 -3 -9 -1 -9 3 0 11 -60 34 -71 27 -5 -3 -9 0 -9 5 0 6 -6 11
-13 11 -7 0 -59 18 -115 40 -104 41 -124 43 -117 12 4 -22 120 -341 146 -404
10 -26 19 -57 19 -69 0 -14 -34 -56 -97 -121 -114 -116 -112 -114 -93 -103 13
8 13 7 1 -9 -13 -15 -10 -21 24 -56 21 -22 43 -36 48 -33 6 3 7 2 4 -4 -3 -5
21 -36 54 -69 56 -55 59 -61 57 -101 -2 -24 -6 -43 -9 -43 -7 0 -14 -15 -65
-160 -20 -58 -48 -134 -62 -170 -23 -58 -30 -96 -20 -106 2 -2 53 15 113 37
61 23 131 48 158 56 26 9 47 20 47 25 0 5 4 7 10 3 5 -3 17 -1 27 5 10 5 45
18 78 29 46 15 64 17 80 8 11 -6 24 -10 28 -9 5 1 6 -1 3 -6 -5 -9 47 -65 58
-63 3 1 5 -1 4 -3 -5 -9 65 -75 74 -70 5 3 7 0 6 -8 -2 -7 4 -12 12 -10 8 2
12 0 7 -4 -4 -4 -1 -15 7 -23 11 -12 15 -47 17 -128 1 -61 -2 -116 -5 -122 -8
-13 -54 -33 -141 -63 -33 -11 -80 -30 -105 -43 -25 -12 -51 -20 -59 -17 -9 3
-11 0 -6 -8 5 -9 4 -11 -3 -6 -16 10 -54 -12 -46 -27 5 -9 3 -8 -7 0 -16 16
-33 17 -23 1 4 -6 3 -8 -4 -5 -8 6 -269 -84 -387 -134 -16 -7 -36 -11 -44 -10
-7 1 -10 -2 -7 -7 7 -11 -61 0 -89 15 -11 6 -37 30 -58 52 -21 23 -42 39 -46
36 -5 -2 -8 3 -7 13 1 11 -6 16 -17 15 -10 0 -16 2 -12 5 8 8 -87 102 -97 96
-5 -3 -8 -2 -7 3 4 22 -2 35 -15 30 -8 -3 -13 1 -12 11 1 10 -6 16 -16 16 -10
-1 -16 2 -13 6 4 7 -102 120 -108 114 -1 -2 -3 5 -4 14 -1 9 -4 30 -6 46 -3
17 -1 37 3 45 10 19 35 84 35 91 0 3 4 11 9 18 4 7 5 20 2 28 -4 10 -2 13 6 8
8 -5 9 -2 5 10 -4 10 -3 15 3 11 5 -3 14 13 20 36 6 23 15 49 20 58 4 9 31 81
60 161 28 80 58 161 66 180 8 20 16 42 18 50 1 8 9 31 17 50 37 88 43 118 29
162 -7 24 -20 61 -30 83 -9 22 -26 66 -36 97 -10 31 -22 54 -27 51 -6 -3 -7
-1 -4 4 10 15 -34 133 -46 126 -6 -3 -7 -1 -3 6 10 15 -15 82 -27 74 -6 -3 -7
-1 -3 6 4 6 -5 46 -20 87 -20 56 -31 74 -42 69 -12 -4 -12 -3 -3 9 8 9 9 21 2
37 -5 13 -19 49 -32 79 -24 60 -26 101 -8 146 7 16 11 33 10 37 -1 5 3 6 7 3
13 -8 65 42 57 54 -4 6 -1 9 7 8 7 -2 12 3 10 10 -1 8 2 11 6 8 11 -7 158 141
154 155 -1 6 2 8 8 4 11 -7 62 44 55 55 -6 9 19 32 27 25 2 -3 17 9 33 25 16
17 35 30 42 30 7 0 13 4 13 9 0 13 76 -4 170 -39z m1712 41 c-11 -6 -8 -10 10
-14 13 -4 43 -27 67 -52 23 -25 46 -43 51 -40 4 3 7 -3 6 -13 0 -10 6 -16 16
-16 10 1 16 -1 13 -5 -6 -11 90 -103 99 -94 4 5 7 4 6 -2 -5 -25 1 -37 16 -31
8 3 12 2 9 -4 -3 -6 -1 -10 5 -10 6 0 8 -5 5 -11 -4 -6 0 -9 8 -7 9 2 15 0 14
-4 -1 -4 19 -29 44 -55 73 -77 78 -89 63 -149 -13 -51 -106 -312 -124 -349
-24 -48 -99 -279 -93 -288 3 -6 1 -7 -5 -3 -7 4 -13 1 -13 -6 -3 -27 -5 -34
-22 -65 -10 -18 -15 -33 -13 -33 3 0 -4 -20 -15 -45 -18 -41 -19 -47 -4 -74 8
-17 15 -36 15 -43 0 -8 9 -31 20 -53 11 -22 20 -43 20 -49 0 -9 90 -261 115
-321 7 -16 20 -52 30 -80 33 -95 37 -105 46 -99 5 3 6 -1 3 -9 -3 -8 4 -37 16
-66 39 -99 41 -129 15 -170 -12 -20 -41 -53 -64 -74 -23 -21 -39 -42 -36 -47
3 -4 -3 -7 -13 -6 -10 0 -17 -6 -16 -16 1 -10 -4 -14 -12 -11 -13 5 -19 -8
-15 -30 1 -5 -2 -6 -7 -3 -12 7 -134 -118 -125 -129 4 -4 2 -5 -4 -1 -7 4 -13
2 -13 -4 0 -6 -5 -8 -12 -4 -8 5 -9 2 -5 -10 4 -9 3 -15 -2 -12 -4 3 -19 -6
-32 -20 -13 -14 -36 -32 -51 -40 -30 -15 -114 -19 -120 -5 -5 13 -388 152
-400 145 -7 -5 -8 -2 -4 5 5 8 3 11 -5 10 -8 -2 -27 4 -44 13 -16 9 -46 20
-65 26 -19 6 -60 20 -90 32 -30 12 -68 26 -85 31 -16 5 -46 18 -65 27 l-35 17
-3 120 -3 119 108 108 c122 123 129 125 232 81 29 -12 57 -20 62 -17 5 3 9 0
9 -6 0 -7 7 -10 15 -6 8 3 15 1 15 -4 0 -5 15 -13 33 -18 17 -6 80 -28 140
-50 98 -36 108 -38 117 -23 6 12 2 30 -16 61 -13 23 -22 45 -20 47 6 6 -44
146 -54 153 -4 3 -7 12 -7 20 0 9 -14 53 -31 99 -37 96 -39 121 -12 146 11 10
17 22 13 28 -3 5 -2 7 4 4 11 -7 86 66 78 76 -3 4 -2 5 2 2 10 -8 83 67 83 85
0 15 -72 93 -81 88 -2 -2 -3 -1 -1 1 1 3 -22 30 -53 61 -50 51 -87 120 -64
120 5 0 9 8 9 18 0 10 5 23 11 29 5 5 11 21 13 34 1 13 8 34 15 47 6 12 9 28
5 34 -4 7 -3 8 4 4 7 -4 12 -1 12 8 0 8 14 50 31 93 34 89 41 111 41 136 -1 9
3 15 7 12 5 -2 11 4 14 15 5 21 -20 50 -31 34 -4 -5 -16 -11 -27 -12 -10 -2
-40 -13 -65 -25 -25 -12 -49 -22 -55 -22 -26 -2 -65 -18 -65 -27 0 -5 -4 -7
-8 -4 -5 3 -44 -9 -88 -25 -104 -41 -158 -54 -180 -44 -11 5 -23 7 -27 6 -5
-1 -6 2 -3 7 5 9 -47 65 -58 63 -3 -1 -6 2 -6 7 -1 14 -63 71 -72 66 -5 -3 -7
0 -6 8 2 7 -4 12 -12 10 -8 -2 -12 0 -7 4 4 4 0 15 -9 25 -13 15 -16 39 -15
129 2 124 6 140 30 140 9 0 21 4 26 9 6 5 26 14 45 19 57 17 120 42 154 59 17
10 34 16 38 15 4 -1 24 6 45 15 21 9 44 16 52 14 8 -1 10 2 5 10 -4 7 -3 10 3
6 14 -9 98 20 113 38 6 8 18 11 25 9 7 -3 24 0 37 7 13 7 28 14 33 15 6 1 54
18 108 38 107 41 224 70 189 47z m-2102 -155 c0 -2 -6 -9 -14 -15 -11 -9 -16
-9 -22 0 -4 7 -3 9 4 5 6 -3 13 -2 17 4 6 10 15 14 15 6z m-160 -182 c0 -8
-19 -13 -24 -6 -3 5 1 9 9 9 8 0 15 -2 15 -3z"/>
</g>
</svg>
