<?xml version="1.0" encoding="UTF-8"?>
<svg id="_Слой_2" data-name="Слой 2" xmlns="http://www.w3.org/2000/svg" viewBox="0 0 646.35 642.67">
  <defs>
    <style>
      .cls-1 {
        fill: #fff;
      }
    </style>
  </defs>
  <g id="_Слой_1-2" data-name="Слой 1">
    <g>
      <rect width="646.35" height="642.67"/>
      <g>
        <path class="cls-1" d="M273.06,221.97c-30.19,14.49-51.61,43.89-57.56,76.83-3.73,20.65-1.9,42.42,5.7,61.96,9.57,24.61,28.01,45.29,51.86,56.76l-11.68,30.26c-9.77-4.41-18.98-10.13-27.37-16.77-72.17-57.16-69.58-172.96,5.38-226.55,6.81-4.87,14.33-9.4,21.98-12.73l11.69,30.24Z"/>
        <path class="cls-1" d="M369.61,417.53c30.2-14.45,51.62-43.95,57.56-76.83,3.74-20.72,1.88-42.35-5.7-61.96-9.47-24.51-28.14-45.36-51.86-56.76l11.68-30.26c9.77,4.41,18.98,10.13,27.37,16.77,72.16,57.15,69.57,172.97-5.38,226.55-6.79,4.86-14.33,9.43-21.98,12.73l-11.69-30.24Z"/>
        <path class="cls-1" d="M275.49,116.82c-3.71.69-7.4,1.64-11.02,2.68-37.18,10.71-71.25,31.72-97.21,60.32l-25.08-20.69c-.05-.24,2.23-2.99,2.63-3.43,26.32-29.6,67.32-54.27,105.03-65.97,5.18-1.61,13.92-4.53,19.04-5.12.47-.05.91-.23,1.35.09l5.27,32.12Z"/>
        <path class="cls-1" d="M372.48,554.97l-5.31-32.29c4.1-.92,8.21-1.9,12.25-3.09,36.71-10.78,70.3-31.66,95.98-59.91l25.08,20.69c.05.24-2.58,3.34-3.04,3.84-6.16,6.83-14.2,14.13-21.29,20.03-29.81,24.8-65.63,42.63-103.68,50.73Z"/>
        <path class="cls-1" d="M275.49,522.68l-5.27,32.12c-.61.44-8.14-1.63-9.52-1.98-42.21-10.92-85.35-35.85-114.87-67.99-.53-.58-3.71-4.18-3.65-4.46l25.08-20.69c28.57,31.27,66.73,53.77,108.23,63Z"/>
        <path class="cls-1" d="M367.18,116.82l5.32-32.27c37.65,7.91,73.72,25.77,103.26,50.3,7.3,6.06,15.82,13.78,22.11,20.85.4.45,2.68,3.19,2.63,3.43l-25.08,20.69c-28.49-31.34-66.74-53.81-108.23-63Z"/>
        <path class="cls-1" d="M552.05,245.72c1.53,5.73,3.34,11.38,4.73,17.16,10.35,43.23,8.83,88.99-4.72,131.32l-30.24-11.71c1.09-5.09,2.71-10.16,3.86-15.28,8.21-36.33,6.74-74.67-4.33-110.21l30.7-11.28Z"/>
        <path class="cls-1" d="M121.28,256.77c-1.9,7.45-4.12,14.82-5.6,22.39-5.38,27.44-5.23,56.66.42,84.03,1.34,6.49,3.28,12.84,4.75,19.3l-30.24,11.71c-3.38-10.8-6.18-21.87-8.06-33.05-6.49-38.61-3.63-78.11,8.07-115.43l30.66,11.05Z"/>
        <path class="cls-1" d="M320.42,284.26c1.68-.2,2.75.22,4.28.83l26.07,14.84c1.31,1.42,2.31,2.92,2.49,4.88.85,9.64-.69,20.53,0,30.3-.47,3.15-2.38,4.31-4.79,5.84-7.65,4.87-16.33,8.7-23.98,13.66-2.54,1.08-4.38.83-6.85-.27-8.5-3.79-17.16-10.72-25.73-14.77-1.42-1.21-2.48-2.96-2.49-4.87.61-9.72-.75-20.28,0-29.9.29-3.72,2.25-4.68,5.06-6.4,6.64-4.06,16.3-10.09,23.17-13.24.82-.38,1.9-.8,2.79-.91Z"/>
        <circle class="cls-1" cx="321.31" cy="101.46" r="23.88"/>
        <circle class="cls-1" cx="321.31" cy="444.63" r="23.89"/>
        <circle class="cls-1" cx="321.31" cy="538.08" r="23.88"/>
        <circle class="cls-1" cx="321.32" cy="194.88" r="23.88"/>
        <circle class="cls-1" cx="126.2" cy="209.25" r="23.88"/>
        <circle class="cls-1" cx="516.45" cy="209.25" r="23.88"/>
        <circle class="cls-1" cx="126.2" cy="430.26" r="23.88"/>
        <circle class="cls-1" cx="516.45" cy="430.26" r="23.88"/>
      </g>
    </g>
  </g>
</svg>